<svg width="546" height="546" xmlns="http://www.w3.org/2000/svg" xmlns:xlink="http://www.w3.org/1999/xlink" xml:space="preserve" overflow="hidden"><g transform="translate(-1342 -1452)"><g><path d="M1565.06 1619.12 1645.84 1619.12 1563.84 1701.11 1775.11 1701.11 1775.11 1758.29 1568.24 1758.29 1650.23 1840.28 1569.46 1840.28 1456.68 1727.5ZM1614.5 1499.6C1488.63 1499.6 1386.6 1601.63 1386.6 1727.5 1386.6 1853.37 1488.63 1955.4 1614.5 1955.4 1740.37 1955.4 1842.4 1853.37 1842.4 1727.5 1842.4 1601.63 1740.37 1499.6 1614.5 1499.6ZM1614.5 1457C1763.89 1457 1885 1578.11 1885 1727.5 1885 1876.89 1763.89 1998 1614.5 1998 1465.11 1998 1344 1876.89 1344 1727.5 1344 1578.11 1465.11 1457 1614.5 1457Z" fill="#FFFFFF" fill-rule="evenodd" fill-opacity="1"/></g></g></svg>